<svg width="514" height="439" fill="none" xmlns="http://www.w3.org/2000/svg">
  <g clip-path="url(#clip0)">
    <path d="M108 56c17 1 24-11 32-25 22-41 70-37 86-12 12 18 37 14 57 7s53-13 80-5c24 7 33 33 55 31 46-3 70 43 61 63-5 13-8 27-4 41 5 15 17 27 26 39 9 13 16 29 12 44-4 13-16 22-23 33-22 35 0 89-30 118-21 21-56 17-86 21-24 3-48 13-72 17-50 9-101-10-151-10-18 0-36 2-54-3-23-5-42-23-50-45-11-31-1-67-13-97-11-24-35-44-34-71 1-16 12-30 20-45 12-21-4-107 88-101zm147-40c-4 0-8 3-8 6 0 4 4 6 8 6 15 1 15-5 15-8 0-5-10-4-15-4zm147 26c4 4 9 5 14 6l4-1v-5l-2-1-5-3-1-1c-2-2-15 1-10 5zm25 6l4-1c1 0 2 0 1-1v-1c-2-1-4-2-6-1-2 2 0 3 1 4zm59 116l2 5 8 9 4 1c1 1 3 0 4-1 3-2 5-5 5-9 1-5-2-9-4-13l-6-7c-5-2-8 0-9 4s-5 7-4 11zM9 275c-3 2 0 8 0 12l2 4 4 2c3 1 6 2 8 0s2-4 2-7v-6l-1-2-3-3c-4-1-10-2-12 0zm144 153l-3 2 2 3c7 5 18 6 27 6h4c2-1 3-4 2-6l-2-2c-8-7-20-5-30-3zm192-4c-8 6 1 12 12 8 5-3 11-5 17-6 2-1 14-4 14-6 0-7-13-6-22-4-6 1-13 2-21 8z" fill="#ECF3FF"/>
    <path d="M182 405c23 0 42-1 42-4 0-2-19-3-42-3s-42 1-42 3c0 3 19 4 42 4zM397 405c23 0 42-1 42-4 0-2-19-3-42-3s-42 1-42 3c0 3 19 4 42 4z" fill="#C8DBFB"/>
    <path d="M486 126l-1-2" stroke="#C8DBFB" stroke-linecap="round" stroke-linejoin="round"/>
    <path d="M484 120c-7-26-31-23-53-23H50c-36 1-33 53-5 53 16 0 23 30-5 30-17 0-18 21-6 26" stroke="#C8DBFB" stroke-linecap="round" stroke-linejoin="round" stroke-dasharray="3.99 3.99"/>
    <path d="M36 206h2" stroke="#C8DBFB" stroke-linecap="round" stroke-linejoin="round"/>
    <path d="M42 205a5 5 0 1 1-10 2 5 5 0 0 1 10-2zM491 128a5 5 0 1 1-11-2 5 5 0 0 1 11 2zM95 168l-3 12-11 25c-2 5-11 15-15 17l-1-36c-1-11 3-20-1-30l-2-4-5-15c-1-7 1-14 7-18 4-2 9-2 14 0 4 2 8 5 11 10 7 11 8 25 6 39z" fill="#5193F4"/>
    <path d="M75 131c8 12 9 26 10 40 1 15-3 30-10 43" stroke="#0B43A4" stroke-miterlimit="10" stroke-linecap="round" stroke-linejoin="round"/>
    <path d="M75 352l-17-17c-4-6-6-13-9-19-3-4-5-7-6-12-2-4-1-9 2-12 3-4 8-4 13-3 4 2 7 6 10 10 3 5 5 11 6 17l2 17c1 5 2 10 5 15l8 16c-4 2-12-10-14-12z" fill="#00AD9F"/>
    <path d="M54 297c5 3 8 9 9 16 1 6 1 14 4 20 6 12 14 25 19 29" stroke="#00AD9F" stroke-miterlimit="10" stroke-linecap="round" stroke-linejoin="round"/>
    <path d="M45 336c-5-2-11-3-14 1s-2 9 0 13c2 3 4 7 7 9l7 1 22 2c8 0 18 3 25 8-9-16-30-28-47-34z" fill="#0056EC"/>
    <path d="M37 346l18 3c6 2 30 12 34 17" stroke="#0B43A4" stroke-miterlimit="10" stroke-linecap="round" stroke-linejoin="round"/>
    <path d="M99 302c-6-10-17-17-29-19-9-1-18 1-26-1-10-2-18-8-22-16-5-8-6-18-4-26 2-7 7-14 14-16h11l10 4c6 5 12 11 16 18l19 23 6 6c5 5 3 21 5 27z" fill="#52D2BC"/>
    <path d="M30 244c21 9 44 22 58 39" stroke="#00AD9F" stroke-miterlimit="10" stroke-linecap="round" stroke-linejoin="round"/>
    <path d="M90 274c-5-25-7-29-5-36 3-8 1-16 4-25 3-8 4-17 2-25 0-3-2-6-5-6l-4 1c-2 2-3 6-3 9l-2 10c-1 3-5 3-6 0v-8c1-7 2-13 1-19 0-7-4-14-11-18h-8c-7 2-9 9-8 15l5 13c4 10 1 19 1 29 2 30 39 60 39 60z" fill="#7EE8D4"/>
    <path d="M57 165c4 18 8 37 15 54 2 5 3 12 15 25" stroke="#00AD9F" stroke-miterlimit="10" stroke-linecap="round" stroke-linejoin="round"/>
    <path d="M200 169l-11-13a114 114 0 0 0-11-11c-9-7-18-13-29-18l-18-9c-5-4-9-11-7-17 1-5 5-9 10-10 5-2 10-2 14-1 13 3 25 12 32 24a125 125 0 0 1 16 37c2 4 6 14 4 18z" fill="#5193F4"/>
    <path d="M140 101c14 3 25 12 35 23 11 10 19 23 22 37" stroke="#0B43A4" stroke-miterlimit="10" stroke-linecap="round" stroke-linejoin="round"/>
    <path d="M214 104c-1 6-4 10-7 15a115 115 0 0 0-14 34v9c-7-2-10-22-11-28-1-11 1-22 6-32 2-4 4-8 8-11s9-4 13-1c3 1 4 3 5 6v8z" fill="#52D2BC"/>
    <path d="M190 156c-4-11-2-35 5-49 2-5 6-9 10-12" stroke="#00AD9F" stroke-miterlimit="10" stroke-linecap="round" stroke-linejoin="round"/>
    <path d="M255 151l-1 6c-4 7-10 13-20 18l-1-14c0-12-14-19-22-28-4-5-8-11-8-17-1-6 1-13 7-17 4-3 9-3 15-3 8 1 17 4 22 11l1 1c3 4 5 10 6 15 2 9 3 19 1 28z" fill="#00AD9F"/>
    <path d="M213 106c10 5 19 11 24 20 8 12 6 28 0 42" stroke="#00AD9F" stroke-miterlimit="10" stroke-linecap="round" stroke-linejoin="round"/>
    <path d="M411 231c6-10 3-22 5-33 1-9 6-17 13-22 4-4 10-6 15-4 1 1 3 2 4 1l1-2c1-6-2-13 0-18 2-3 4-6 7-7 5-4 12-6 18-6l5 1c3 1 4 4 4 7l-4 9c-6 8-15 15-17 25l1 4 2 3c2 3-2 7-5 9-4 2-7 3-11 3-2 0-5 0-7 2-3 4 1 9 0 14l-5 7-12 10-11 7c-3 3-6 7-6 11" fill="#52D2BC"/>
    <path d="M419 222l5-14c3-7 7-13 12-19l13-11 7-10 3-6 6-5 6-9" stroke="#00AD9F" stroke-miterlimit="10" stroke-linecap="round" stroke-linejoin="round"/>
    <path d="M496 238c-1 5-3 10-7 14l-8 7-5 3c-7 2-14 4-22 4-11 1-22-2-32 1a31 31 0 0 0-18 15l1-9c3-10 6-19 11-28l12-14c8-7 16-13 25-18 8-3 16-6 24-5 9 1 17 6 19 14 2 5 1 11 0 16z" fill="#5193F4"/>
    <path d="M412 266c8-11 20-20 33-25l26-6c8-3 17-7 21-14" stroke="#0B43A4" stroke-miterlimit="10" stroke-linecap="round" stroke-linejoin="round"/>
    <path d="M417 352c1-12 7-23 15-33 6-8 13-15 23-18 3-1 6-2 9-1 3 0 6 3 6 6s-2 5-4 7c-6 6-14 10-21 15-13 7-25 18-30 32" fill="#52D2BC"/>
    <path d="M422 341c8-17 28-33 42-35" stroke="#00AD9F" stroke-miterlimit="10" stroke-linecap="round" stroke-linejoin="round"/>
    <path d="M413 361c0-2 6-7 8-9 8-7 17-12 28-16 4-1 8-2 12-1s8 5 9 9c0 4-3 9-7 11-3 2-8 2-12 2l-19-2c-6 0-15 1-19 6z" fill="#00AD9F"/>
    <path d="M419 355c13-7 33-12 48-10" stroke="#00AD9F" stroke-miterlimit="10" stroke-linecap="round" stroke-linejoin="round"/>
    <path d="M301 151c10-4 20-6 29-12l7-6c2-2 3-6 3-9-1-3-3-6-2-9 0-2 2-4 3-5 3-5 4-10 2-15-1-5-5-9-7-14-2-4-3-9-2-13-8 0-16 5-24 6l-19 2c-11 3-20 13-22 24-5-1-11 1-14 5-4 4-6 10-6 15 3 41 26 62 26 62s22-30 26-31z" fill="#7EE8D4"/>
    <path d="M279 150c-1-10 2-19 6-29 4-9 9-17 15-25s14-14 23-18M288 84c-1 9-1 20 2 28M291 109c10-6 26-10 38-10M266 111c13 5 13 23 13 28M283 128c9-7 23-9 33-7M308 79l-3 11M308 87c4-2 10-2 16-1" stroke="#00AD9F" stroke-miterlimit="10" stroke-linecap="round" stroke-linejoin="round"/>
    <path d="M67 107l12-8 2-2v-3c0-1-1-2-3-2-4 0-5 1-7 3-7 7-4 12-4 12zM102 130c3 2 7 3 11 3l3-2c1-1 0-3-1-4l-3-1c-5-1-11-1-16 1l6 3zM124 80c-1-1-3-2-3-4s2-3 4-3l5 2c6 5 5 11 5 11l-11-6zM129 64l-4-2v-2c1-1 1-2 4-2 9 2 11 8 11 8l-11-2zM155 78c4 0 7-2 10-5l2-4-1-3h-5l-3 4-3 8z" fill="#4A49CA"/>
    <path d="M91 209l-26-23-12-14c-6-12-3-27 6-37 8-10 21-16 33-21 13-4 26-7 38-13 7-3 15-9 17-17a17 17 0 0 0-15-21M161 70c-2 7-11 11-16 18" stroke="#0B43A4" stroke-miterlimit="10" stroke-linecap="round" stroke-linejoin="round"/>
    <path d="M128 78l6 6c3 4 3 11-2 16M81 119c8 6 18 10 28 10M64 130c-4-11 0-23 9-30" stroke="#0B43A4" stroke-miterlimit="10" stroke-linecap="round" stroke-linejoin="round"/>
    <path d="M344 86v-4l3-1c8 3 7 15 7 15s-7-1-10-10zM344 108c-5 9 12 8 18 3 0 0-14-11-18-3zM366 86c-2-1-2-4-1-5 1-2 3-2 4-2l5 3c6 7 3 14 3 14l-11-10zM435 108l1-4 2-1 3 1 4 4c2 5 1 10 1 10s-10-6-11-10zM413 125c-3-3-8-4-11-2l-3 2c-1 2-1 4 1 6l5 4c4 2 10 2 15 3 0 0 0-8-7-13z" fill="#4A49CA"/>
    <path d="M349 87c3 9 10 15 18 19 8 3 17 4 26 5 9 0 18 0 26 3 8 2 17 7 20 15 5 9 1 20-5 29-6 8-15 15-20 24-3 4-5 9-5 13 1 7 6 11 11 15M369 84c6 7 11 17 12 26" stroke="#0B43A4" stroke-miterlimit="10" stroke-linecap="round" stroke-linejoin="round"/>
    <path d="M350 109l10 2c3 0 7-2 10-4M441 109c3 3 5 7 5 11 0 5-2 10-5 13M408 129l19 15c3 2 9 5 12 4" stroke="#0B43A4" stroke-miterlimit="10" stroke-linecap="round" stroke-linejoin="round"/>
    <path d="M463 255c5 0 10 1 13 4 4 3 7 7 6 12-1 6-6 9-12 10l-16-2c-12-3-25-3-37-2l-9 3c0-8 18-17 23-20 10-4 21-6 32-5z" fill="#52D2BC"/>
    <path d="M413 275c9-8 32-13 48-11 5 0 10 1 14 5" stroke="#00AD9F" stroke-miterlimit="10" stroke-linecap="round" stroke-linejoin="round"/>
    <path d="M396 186h88a19 19 0 0 1 0 37l-60 1M131 251H70a11 11 0 1 0 0 21h18" stroke="#0B43A4" stroke-miterlimit="10" stroke-linecap="round" stroke-linejoin="round" stroke-dasharray="4 4"/>
    <path d="M34 298c-21 0-22 32 5 32l393-1c17 0 19-26-2-26-40 0-42-19-19-19" stroke="#C8DBFB" stroke-miterlimit="10" stroke-linecap="round" stroke-linejoin="round" stroke-dasharray="4 4"/>
    <path d="M39 297a5 5 0 1 1-11 2 5 5 0 0 1 11-2z" fill="#5193F4"/>
    <path d="M421 284a5 5 0 1 1-10 1 5 5 0 0 1 10-1z" fill="#0B43A4"/>
    <path d="M420 370l-326 1c-4 0-8-4-8-8V147c0-4 3-8 8-8l326-1c4 0 8 4 8 8v216c0 5-3 8-8 8z" fill="#fff"/>
    <path d="M419 138l-324 1c-5 0-9 4-9 9v7l342-1v-7c0-5-4-9-9-9z" fill="#0056EC"/>
    <path d="M95 371h49V155H86v207c1 5 4 9 9 9z" fill="#C8DBFB"/>
    <path d="M420 141c3 0 5 2 5 5l1 216-2 4-4 2-326 1c-3 0-5-3-5-6l-1-216 2-4 4-2h326zm0-3l-326 1c-4 0-8 4-8 8v216c1 4 4 8 8 8l326-1c5 0 8-3 8-8V146c0-4-4-8-8-8z" fill="#0056EC"/>
    <path d="M136 354H98c-2 0-3-1-3-3s1-3 3-3h38c1 0 3 1 3 3s-1 3-3 3zM131 208H99c-3 0-5-2-5-5v-33c0-3 2-5 5-5h32c3 0 6 2 6 5v32c0 3-3 6-6 6z" fill="#fff"/>
    <path d="M269 304l-112 1c-2 0-4-2-4-4v-1c0-2 2-4 4-4h112c2 0 4 2 4 4 0 3-2 4-4 4zM263 177h-89c-2 0-4-2-4-4v-1c0-2 2-4 4-4h89c2 0 3 2 3 4v1c0 2-1 4-3 4zM403 266H284c-2 0-3-1-4-3v-1c0-2 2-4 4-4h119c2 0 3 2 3 4s-1 4-3 4zM269 322H157c-2 0-4-2-4-4 0-3 2-4 4-4l112-1c2 0 4 2 4 4v1c0 2-2 4-4 4zM269 339H157c-2 0-4-2-4-4s2-4 4-4h112c2 0 4 1 4 4 0 2-2 4-4 4zM400 350l-113 1c-3 0-6-3-6-7v-48c0-4 2-7 6-7h113c4 0 7 3 7 6v49c0 3-3 6-7 6zM105 147a3 3 0 1 1-6 0 3 3 0 0 1 6 0zM114 150a3 3 0 1 0 0-6 3 3 0 0 0 0 6zM128 147a3 3 0 1 1-5 0 3 3 0 0 1 5 0zM166 173a8 8 0 1 0-16-1 8 8 0 0 0 16 1z" fill="#C8DBFB"/>
    <path d="M134 215H98l-1-2 1-1h36l1 1-1 2zM134 221l-36 1-1-2 1-2h36l1 2-1 1z" fill="#fff"/>
    <path d="M174 236h-10v42h-9c-3 0-5-3-5-6v-77c0-3 2-6 5-6h19v47z" fill="#C8DBFB"/>
    <path d="M239 189v1c3 0 5 3 5 6v75a5 5 0 0 1-5 6h-83c-3 0-5-3-5-6v-75a5 5 0 0 1 5-6h83v-1zm0 0h-83c-3 0-6 3-6 7v75c0 4 3 7 6 7h83c4 0 7-3 7-7l-1-75c0-4-3-7-6-7zM377 251l-110-25c-4 0-6-4-5-7l12-55c1-4 4-6 8-5l110 25c4 0 6 4 5 7l-12 55c-1 4-5 6-8 5z" fill="#C8DBFB"/>
    <path d="M164 400h-16l-4-19h23l-3 19z" fill="#0056EC"/>
    <path d="M149 381v4c2 0 1-2 2-2s0 8 3 8c2 1 2-4 2-6s2-2 2-1v4c0 3 4 2 4-1v-6h-13z" fill="#C8DBFB"/>
    <path d="M145 393h-1l-2-2c-2-4 2-10 2-10l1 1s-4 5-3 8l2 2h1c6 0 15-10 15-11l1 1s-10 11-16 11z" fill="#0C2340"/>
    <path d="M307 121c-22-1-52 15-41 55l4-2c3-30 10-35 22-35h27c7 1 19 7 21 31h6c1-17-3-48-39-49z" fill="#EF832B"/>
    <path d="M302 121l-3 7s1 4 5 4 4-2 4-2l1-8-7-1z" fill="#FFB9A3"/>
    <path d="M319 115c-3 7-5 9-10 10-6 1-13-3-10-14 3-8 7-7 11-7 4 1 13 4 9 11z" fill="#FFB9A3"/>
    <path d="M304 110c-1-1-2 0-3 1v3c-2 0-3 1-3 3l-1-8c0-2 0-5 2-7l2-1c4-2 8-2 11-1 1 1 3 2 6 1 4-1 7 2 4 5l3 2v1h-3l2 2c2 2-4 1-5 1 1 0 4 2 3 3 0 1-4 3-7-2l-4-2-3 1h-3s1-1-1-2z" fill="#0C2340"/>
    <path d="M341 170c-1 3-2 3-1 4l2-2 6 2-3-4h-4zM270 174l2 4c2 4-3 10-6 3v-5l4-2z" fill="#FFB9A3"/>
    <path d="M312 101c4 0 9-2 11 1l1-1c-3-4-8-1-12-1v1z" fill="#0C2340"/>
    <path d="M314 99h-8l-5 2v1c2-1 5-3 7-2h6v-1zM299 102c-2 2-3 3-3 5s0 5 2 6v-1l-1-5 3-4-1-1zM327 109c-1-2-4-3-5-2-1 0 0 0 0 0h2l2 2h1z" fill="#0C2340"/>
    <path d="M206 274c12 4 22 17 19 27-2 11-10 15-10 15l-2-4s6-9 5-14c0-7-9-12-9-12l-3-12z" fill="#0B43A4"/>
    <path d="M178 396l-9 4h14v-4h-5zM209 396l2 4h-9l1-4h6z" fill="#0C2340"/>
    <path d="M209 396h-6a932 932 0 0 0-5-76l3-1 13-3c3 11-3 58-5 80z" fill="#047F76"/>
    <path d="M185 320c-5 8-6 65-8 76h6s7-36 22-77l-20 1z" fill="#009790"/>
    <path d="M185 320c-5 8-6 65-8 76h6s7-36 22-77l-20 1z" fill="#009790"/>
    <path d="M189 255s-4 15 6 15v4l7 1-1-6 1-11c0-3-9-9-13-3z" fill="#FFB9A3"/>
    <path d="M165 238h-3v12h3v-12z" fill="#0C2340"/>
    <path d="M172 238h-17l-2-2c0-2 1-3 2-3h17c1 0 2 1 2 3l-2 2z" fill="#0056EC"/>
    <path d="M161 254c0-3-2-2-1-7 1-3 7 1 6 2l-2 5h-3z" fill="#FFB9A3"/>
    <path d="M195 273c-14 1-15 6-22 5-10-1-8-19-7-26h-6s-10 42 23 34c-1 7 7 19-1 34 13 3 24 4 34 0-1-3 4-27-6-44-2-4-14-3-15-3z" fill="#0056EC"/>
    <path d="M195 273c-14 1-15 6-22 5-10-1-8-19-7-26h-6s-10 42 23 34c-1 7 7 19-1 34 13 3 24 4 34 0-1-3 4-27-6-44-2-4-14-3-15-3z" fill="#0056EC"/>
    <path d="M193 258l3 1v2l2-1 1 1v1l-1 2 3 5c2 0 6-2 7-9 0-3-1-7-5-10h-10c-2 0-6 3-4 5l4 3z" fill="#EF832B"/>
    <path d="M206 253l4 1 1 3v2h2l5 1 4 2v3l3 2 6 6 1 5c0 1 2 4 1 5 0 2-2 5-5 6-6 2-8 3-14-1l-3-2-1-2 1-5 3-4 1-3v-1l-1-1h-4l-2-3 1-2c1-2 0-3-1-3l-3-2h-2l-1-2c0-2 2-4 4-5z" fill="#EF832B"/>
    <path d="M205 259c7 2-2 9 2 12l3 1c5 1 3 4 2 7h1c1-2 2-4 1-6 0-2-2-2-4-2s-4 0-3-4l1-2v-3c0-2-1-3-3-3zM190 250c5-2 11-2 16 2 0 1 1 0 0 0-4-5-11-6-16-2 0 0 0 1 0 0z" fill="#EF832B"/>
    <path d="M379 268l-2 5 6 2v-5l-4-2z" fill="#FFB9A3"/>
    <path d="M383 252c-14 6-8 20 0 19 4-1 6-14 6-14l-6-5z" fill="#FFB9A3"/>
    <path d="M387 250l-2-2h-2v3h-2v2l3 3c-1 0-2 1-1 2v2l-1 2h2l-1 2-1 1s-2 5-1 6c2 1 7 0 8-1l3 1c1 0 2-1 1-2l4-1v-4l1-2-3-3 1-1-1-2c-1-2-2-2-4-2s-3-2-4-4z" fill="#4A49CA"/>
    <path d="M374 395l-9 5h17c1-1-2-5-2-5h-6zM404 391l-8 6 17-3-4-4-5 1z" fill="#0C2340"/>
    <path d="M382 322c0 1-11 44 20 70l9-2s-11-10-15-28c-5-17-1-18 1-27 3-11 1-18 1-18l-16 5z" fill="#D8742A"/>
    <path d="M367 321c-5 12-13 52 5 75h9s-7-8-8-27c0-18 4-26 8-32l6-16h-20z" fill="#EF832B"/>
    <path d="M361 249c-3 8-3 24 9 31l8-2s-15-8-12-28l-5-1z" fill="#0B43A4"/>
    <path d="M338 244l7-1s-1 27 30 29c23 2 25 46 25 46-8 5-20 7-37 6 0 0 1-32-1-40 0 0-26-8-24-40z" fill="#0056EC"/>
    <path d="M330 239c-1 2 4 3 8 5h6v-3c0-1-1-2-2-1 0 1-3 2-4 1-2-1-6-3-8-2zM361 249l-2-2 6 1 3-3v3l-2 2-5-1z" fill="#FFB9A3"/>
    <path d="M391 253l3 1c1 1 2 3 1 4h1v-4l-5-2v1zM396 265c1 0 2 1 1 2l-2 2 1 1 2-3-1-3-1 1zM382 271c3 2 7 2 9-1v-1c-3 2-6 3-9 2z" fill="#4A49CA"/>
    <path d="M397 255c1 2 0 4-1 5-1 0 0 1 0 0 1 0 2-1 2-3l-1-2s-1 0 0 0z" fill="#4A49CA"/>
    <path d="M213 57l-2-6 24-10-22 16z" fill="#0B43A4"/>
    <path d="M215 53l20-12-14 15-6-3zM205 48l30-7-24 10-6-3z" fill="#5193F4"/>
    <path d="M215 53l-2 4 4-3-2-1z" fill="#0056EC"/>
    <path d="M211 56c-7-1-16 6-12 12 1 3 8 2 7-1l-2-2c-8 1-8 7-8 9 2 8 14 5 18 4" stroke="#C8DBFB" stroke-miterlimit="10" stroke-linecap="round" stroke-linejoin="round" stroke-dasharray="4 4"/>
  </g>
  <defs>
    <clipPath id="clip0">
      <path fill="#fff" d="M0 0h514v439H0z"/>
    </clipPath>
  </defs>
</svg>
